# WaveFront *.obj file (generated by Cheetah3D)

mtllib FieldOfView.mtl

g Box
v -4.904225 -0.038229 4.497451
v -4.904225 2.764576 4.497451
v 4.534322 2.764576 4.497451
v 4.534322 -0.038229 4.497451
v 0.500000 -0.038229 0.052455
v 0.500000 1.951242 0.052455
v -0.500000 1.951242 0.052455
v -0.500000 -0.038229 0.052455

vt 0.000000 0.000000
vt 0.000000 1.000000
vt 1.000000 1.000000
vt 1.000000 0.000000

vn 0.000000 0.000000 1.000000
vn 0.000000 0.000000 -1.000000
vn -0.710357 0.000000 -0.703842
vn 0.740486 0.000000 -0.672072
vn 0.000000 0.983669 -0.179989
vn 0.000000 -1.000000 0.000000

usemtl default
f 4/4/1 3/3/1 2/2/1 1/1/1
f 8/4/2 7/3/2 6/2/2 5/1/2
f 1/4/3 2/3/3 7/2/3 8/1/3
f 5/4/4 6/3/4 3/2/4 4/1/4
f 3/4/5 6/3/5 7/2/5 2/1/5
f 5/4/6 4/3/6 1/2/6 8/1/6

